<mxfile host="app.diagrams.net" modified="2024-02-18T07:18:53.291Z" agent="Mozilla/5.0 (Windows NT 10.0; Win64; x64) AppleWebKit/537.36 (KHTML, like Gecko) Chrome/121.0.0.0 Safari/537.36" etag="GCHtl4uez499m929zTNk" version="23.1.5" type="device">
  <diagram name="Page-1" id="lQfRcAKKrzia1UzWATvi">
    <mxGraphModel dx="880" dy="434" grid="1" gridSize="10" guides="1" tooltips="1" connect="1" arrows="1" fold="1" page="1" pageScale="1" pageWidth="827" pageHeight="1169" math="0" shadow="0">
      <root>
        <mxCell id="0" />
        <mxCell id="1" parent="0" />
        <mxCell id="xShOCsYL8cHQ_NuSzqwm-1" value="&lt;b&gt;&lt;i&gt;&lt;font style=&quot;font-size: 13px;&quot;&gt;User&lt;/font&gt;&lt;/i&gt;&lt;/b&gt;" style="rounded=1;whiteSpace=wrap;html=1;" vertex="1" parent="1">
          <mxGeometry x="160" y="120" width="120" height="60" as="geometry" />
        </mxCell>
        <mxCell id="xShOCsYL8cHQ_NuSzqwm-2" value="&lt;b&gt;&lt;i&gt;&lt;font style=&quot;font-size: 13px;&quot;&gt;Client&lt;/font&gt;&lt;/i&gt;&lt;/b&gt;" style="rounded=1;whiteSpace=wrap;html=1;" vertex="1" parent="1">
          <mxGeometry x="440" y="120" width="120" height="60" as="geometry" />
        </mxCell>
        <mxCell id="xShOCsYL8cHQ_NuSzqwm-3" value="&lt;b&gt;&lt;i&gt;&lt;font style=&quot;font-size: 13px;&quot;&gt;AuthZ Server&lt;/font&gt;&lt;/i&gt;&lt;/b&gt;" style="rounded=1;whiteSpace=wrap;html=1;" vertex="1" parent="1">
          <mxGeometry x="720" y="120" width="120" height="60" as="geometry" />
        </mxCell>
        <mxCell id="xShOCsYL8cHQ_NuSzqwm-4" value="&lt;b&gt;&lt;i&gt;&lt;font style=&quot;font-size: 13px;&quot;&gt;Resource Server&lt;/font&gt;&lt;/i&gt;&lt;/b&gt;" style="rounded=1;whiteSpace=wrap;html=1;" vertex="1" parent="1">
          <mxGeometry x="1000" y="120" width="120" height="60" as="geometry" />
        </mxCell>
        <mxCell id="xShOCsYL8cHQ_NuSzqwm-5" value="" style="endArrow=none;html=1;rounded=0;entryX=0.5;entryY=1;entryDx=0;entryDy=0;" edge="1" parent="1" target="xShOCsYL8cHQ_NuSzqwm-1">
          <mxGeometry width="50" height="50" relative="1" as="geometry">
            <mxPoint x="220" y="610" as="sourcePoint" />
            <mxPoint x="250" y="210" as="targetPoint" />
          </mxGeometry>
        </mxCell>
        <mxCell id="xShOCsYL8cHQ_NuSzqwm-6" value="" style="endArrow=none;html=1;rounded=0;entryX=0.5;entryY=1;entryDx=0;entryDy=0;" edge="1" parent="1">
          <mxGeometry width="50" height="50" relative="1" as="geometry">
            <mxPoint x="499.5" y="610" as="sourcePoint" />
            <mxPoint x="499.5" y="180" as="targetPoint" />
          </mxGeometry>
        </mxCell>
        <mxCell id="xShOCsYL8cHQ_NuSzqwm-7" value="" style="endArrow=none;html=1;rounded=0;entryX=0.5;entryY=1;entryDx=0;entryDy=0;" edge="1" parent="1">
          <mxGeometry width="50" height="50" relative="1" as="geometry">
            <mxPoint x="779.5" y="610" as="sourcePoint" />
            <mxPoint x="779.5" y="180" as="targetPoint" />
          </mxGeometry>
        </mxCell>
        <mxCell id="xShOCsYL8cHQ_NuSzqwm-9" value="" style="endArrow=none;html=1;rounded=0;entryX=0.5;entryY=1;entryDx=0;entryDy=0;" edge="1" parent="1">
          <mxGeometry width="50" height="50" relative="1" as="geometry">
            <mxPoint x="1059.5" y="610" as="sourcePoint" />
            <mxPoint x="1059.5" y="180" as="targetPoint" />
          </mxGeometry>
        </mxCell>
        <mxCell id="xShOCsYL8cHQ_NuSzqwm-10" value="" style="endArrow=classic;html=1;rounded=0;" edge="1" parent="1">
          <mxGeometry width="50" height="50" relative="1" as="geometry">
            <mxPoint x="230" y="240" as="sourcePoint" />
            <mxPoint x="490" y="240" as="targetPoint" />
          </mxGeometry>
        </mxCell>
        <mxCell id="xShOCsYL8cHQ_NuSzqwm-11" value="&lt;b&gt;&lt;i&gt;&lt;font style=&quot;font-size: 10px;&quot;&gt;I want to access my resources in your portal&lt;/font&gt;&lt;/i&gt;&lt;/b&gt;" style="text;html=1;align=center;verticalAlign=middle;whiteSpace=wrap;rounded=0;" vertex="1" parent="1">
          <mxGeometry x="270" y="210" width="160" height="30" as="geometry" />
        </mxCell>
        <mxCell id="xShOCsYL8cHQ_NuSzqwm-12" value="" style="endArrow=classic;html=1;rounded=0;" edge="1" parent="1">
          <mxGeometry width="50" height="50" relative="1" as="geometry">
            <mxPoint x="490" y="280" as="sourcePoint" />
            <mxPoint x="230" y="280" as="targetPoint" />
          </mxGeometry>
        </mxCell>
        <mxCell id="xShOCsYL8cHQ_NuSzqwm-13" value="&lt;b&gt;&lt;i&gt;&lt;font style=&quot;font-size: 10px;&quot;&gt;authorize client to pull resources from Resource server&lt;/font&gt;&lt;/i&gt;&lt;/b&gt;" style="text;html=1;align=center;verticalAlign=middle;whiteSpace=wrap;rounded=0;" vertex="1" parent="1">
          <mxGeometry x="270" y="280" width="160" height="30" as="geometry" />
        </mxCell>
        <mxCell id="xShOCsYL8cHQ_NuSzqwm-14" value="" style="endArrow=classic;html=1;rounded=0;" edge="1" parent="1">
          <mxGeometry width="50" height="50" relative="1" as="geometry">
            <mxPoint x="230" y="330" as="sourcePoint" />
            <mxPoint x="770" y="330" as="targetPoint" />
          </mxGeometry>
        </mxCell>
        <mxCell id="xShOCsYL8cHQ_NuSzqwm-16" value="&lt;b style=&quot;border-color: var(--border-color);&quot;&gt;&lt;font style=&quot;border-color: var(--border-color);&quot; color=&quot;#ffffff&quot;&gt;1&lt;/font&gt;&lt;/b&gt;" style="ellipse;whiteSpace=wrap;html=1;aspect=fixed;fillColor=#000000;" vertex="1" parent="1">
          <mxGeometry x="247" y="210" width="20" height="20" as="geometry" />
        </mxCell>
        <mxCell id="xShOCsYL8cHQ_NuSzqwm-17" value="&lt;b style=&quot;border-color: var(--border-color);&quot;&gt;&lt;font style=&quot;border-color: var(--border-color);&quot; color=&quot;#ffffff&quot;&gt;2&lt;/font&gt;&lt;/b&gt;" style="ellipse;whiteSpace=wrap;html=1;aspect=fixed;fillColor=#000000;" vertex="1" parent="1">
          <mxGeometry x="247" y="290" width="20" height="20" as="geometry" />
        </mxCell>
        <mxCell id="xShOCsYL8cHQ_NuSzqwm-18" value="&lt;b&gt;&lt;i&gt;&lt;font style=&quot;font-size: 10px;&quot;&gt;request&amp;nbsp; to allow Client to pull my details from Resource Server . Here are my credentials&lt;/font&gt;&lt;/i&gt;&lt;/b&gt;" style="text;html=1;align=center;verticalAlign=middle;whiteSpace=wrap;rounded=0;" vertex="1" parent="1">
          <mxGeometry x="280" y="340" width="160" height="30" as="geometry" />
        </mxCell>
        <mxCell id="xShOCsYL8cHQ_NuSzqwm-19" value="&lt;b style=&quot;border-color: var(--border-color);&quot;&gt;&lt;font style=&quot;border-color: var(--border-color);&quot; color=&quot;#ffffff&quot;&gt;3&lt;/font&gt;&lt;/b&gt;" style="ellipse;whiteSpace=wrap;html=1;aspect=fixed;fillColor=#000000;" vertex="1" parent="1">
          <mxGeometry x="248" y="346" width="20" height="20" as="geometry" />
        </mxCell>
        <mxCell id="xShOCsYL8cHQ_NuSzqwm-20" value="" style="endArrow=classic;html=1;rounded=0;" edge="1" parent="1">
          <mxGeometry width="50" height="50" relative="1" as="geometry">
            <mxPoint x="770" y="370" as="sourcePoint" />
            <mxPoint x="510" y="370" as="targetPoint" />
          </mxGeometry>
        </mxCell>
        <mxCell id="xShOCsYL8cHQ_NuSzqwm-21" value="&lt;b&gt;&lt;i&gt;&lt;font style=&quot;font-size: 10px;&quot;&gt;user has allowed you to access his resources from Resource Server. Here is your AUTHORIZATION CODE&amp;nbsp;&lt;/font&gt;&lt;/i&gt;&lt;/b&gt;" style="text;html=1;align=center;verticalAlign=middle;whiteSpace=wrap;rounded=0;" vertex="1" parent="1">
          <mxGeometry x="550" y="380" width="200" height="30" as="geometry" />
        </mxCell>
        <mxCell id="xShOCsYL8cHQ_NuSzqwm-23" value="&lt;b style=&quot;border-color: var(--border-color);&quot;&gt;&lt;font style=&quot;border-color: var(--border-color);&quot; color=&quot;#ffffff&quot;&gt;4&lt;/font&gt;&lt;/b&gt;" style="ellipse;whiteSpace=wrap;html=1;aspect=fixed;fillColor=#000000;" vertex="1" parent="1">
          <mxGeometry x="520" y="385" width="20" height="20" as="geometry" />
        </mxCell>
        <mxCell id="xShOCsYL8cHQ_NuSzqwm-24" value="" style="endArrow=classic;html=1;rounded=0;" edge="1" parent="1">
          <mxGeometry width="50" height="50" relative="1" as="geometry">
            <mxPoint x="510" y="440" as="sourcePoint" />
            <mxPoint x="770" y="440" as="targetPoint" />
          </mxGeometry>
        </mxCell>
        <mxCell id="xShOCsYL8cHQ_NuSzqwm-25" value="&lt;b&gt;&lt;i&gt;&lt;font style=&quot;font-size: 10px;&quot;&gt;provide ACCESS TOKEN against the Client Secret and provided&amp;nbsp;&amp;nbsp;&lt;/font&gt;&lt;/i&gt;&lt;/b&gt;&lt;b style=&quot;border-color: var(--border-color);&quot;&gt;&lt;i style=&quot;border-color: var(--border-color);&quot;&gt;&lt;font style=&quot;border-color: var(--border-color); font-size: 10px;&quot;&gt;AUTHORIZATION CODE&lt;/font&gt;&lt;/i&gt;&lt;/b&gt;&lt;b&gt;&lt;i&gt;&lt;font style=&quot;font-size: 10px;&quot;&gt;&lt;br&gt;&amp;nbsp;&lt;/font&gt;&lt;/i&gt;&lt;/b&gt;" style="text;html=1;align=center;verticalAlign=middle;whiteSpace=wrap;rounded=0;" vertex="1" parent="1">
          <mxGeometry x="550" y="453" width="200" height="30" as="geometry" />
        </mxCell>
        <mxCell id="xShOCsYL8cHQ_NuSzqwm-26" value="&lt;b style=&quot;border-color: var(--border-color);&quot;&gt;&lt;font style=&quot;border-color: var(--border-color);&quot; color=&quot;#ffffff&quot;&gt;5&lt;/font&gt;&lt;/b&gt;" style="ellipse;whiteSpace=wrap;html=1;aspect=fixed;fillColor=#000000;" vertex="1" parent="1">
          <mxGeometry x="520" y="458" width="20" height="20" as="geometry" />
        </mxCell>
        <mxCell id="xShOCsYL8cHQ_NuSzqwm-27" value="" style="endArrow=classic;html=1;rounded=0;" edge="1" parent="1">
          <mxGeometry width="50" height="50" relative="1" as="geometry">
            <mxPoint x="770" y="520" as="sourcePoint" />
            <mxPoint x="510" y="520" as="targetPoint" />
          </mxGeometry>
        </mxCell>
        <mxCell id="xShOCsYL8cHQ_NuSzqwm-28" value="&lt;b&gt;&lt;i&gt;&lt;font style=&quot;font-size: 10px;&quot;&gt;here is ACCESS TOKEN from AuthZ Server&lt;/font&gt;&lt;/i&gt;&lt;/b&gt;&lt;b&gt;&lt;i&gt;&lt;font style=&quot;font-size: 10px;&quot;&gt;&lt;br&gt;&amp;nbsp;&lt;/font&gt;&lt;/i&gt;&lt;/b&gt;" style="text;html=1;align=center;verticalAlign=middle;whiteSpace=wrap;rounded=0;" vertex="1" parent="1">
          <mxGeometry x="557" y="528" width="200" height="30" as="geometry" />
        </mxCell>
        <mxCell id="xShOCsYL8cHQ_NuSzqwm-29" value="&lt;b style=&quot;border-color: var(--border-color);&quot;&gt;&lt;font style=&quot;border-color: var(--border-color);&quot; color=&quot;#ffffff&quot;&gt;6&lt;/font&gt;&lt;/b&gt;" style="ellipse;whiteSpace=wrap;html=1;aspect=fixed;fillColor=#000000;" vertex="1" parent="1">
          <mxGeometry x="522" y="529" width="20" height="20" as="geometry" />
        </mxCell>
        <mxCell id="xShOCsYL8cHQ_NuSzqwm-30" value="" style="endArrow=classic;html=1;rounded=0;" edge="1" parent="1">
          <mxGeometry width="50" height="50" relative="1" as="geometry">
            <mxPoint x="510" y="580" as="sourcePoint" />
            <mxPoint x="1052" y="580" as="targetPoint" />
          </mxGeometry>
        </mxCell>
        <mxCell id="xShOCsYL8cHQ_NuSzqwm-32" value="&lt;span style=&quot;font-size: 10px;&quot;&gt;&lt;b&gt;&lt;i&gt;provide the resources for User after validating the ACCESS TOKEN from AuthZ server&lt;/i&gt;&lt;/b&gt;&lt;/span&gt;" style="text;html=1;align=center;verticalAlign=middle;whiteSpace=wrap;rounded=0;" vertex="1" parent="1">
          <mxGeometry x="560" y="590" width="200" height="30" as="geometry" />
        </mxCell>
        <mxCell id="xShOCsYL8cHQ_NuSzqwm-33" value="&lt;b style=&quot;border-color: var(--border-color);&quot;&gt;&lt;font style=&quot;border-color: var(--border-color);&quot; color=&quot;#ffffff&quot;&gt;7&lt;/font&gt;&lt;/b&gt;" style="ellipse;whiteSpace=wrap;html=1;aspect=fixed;fillColor=#000000;" vertex="1" parent="1">
          <mxGeometry x="522" y="595" width="20" height="20" as="geometry" />
        </mxCell>
      </root>
    </mxGraphModel>
  </diagram>
</mxfile>
